<mxfile host="app.diagrams.net" modified="2023-03-31T14:02:28.192Z" agent="Mozilla/5.0 (X11; CrOS armv7l 13597.84.0) AppleWebKit/537.36 (KHTML, like Gecko) Chrome/92.0.4515.98 Safari/537.36" etag="JZEe-r6limsxqWb44BNV" version="21.1.2" type="github">
  <diagram name="Página-1" id="rkHG6nmuOjkpt8-TUzvK">
    <mxGraphModel dx="999" dy="572" grid="1" gridSize="10" guides="1" tooltips="1" connect="1" arrows="1" fold="1" page="1" pageScale="1" pageWidth="827" pageHeight="1169" math="0" shadow="0">
      <root>
        <mxCell id="0" />
        <mxCell id="1" parent="0" />
        <mxCell id="QimY8xbkl2on-bAjsN7t-3" value="Planejamento e Gestão" style="text;html=1;strokeColor=none;fillColor=none;align=left;verticalAlign=middle;whiteSpace=wrap;rounded=0;fontSize=40;" parent="1" vertex="1">
          <mxGeometry x="20" y="20" width="430" height="90" as="geometry" />
        </mxCell>
        <mxCell id="IfJ1QCMbeDYxTQooLl67-13" value="Diagrama de casos de uso calendario de planejamentos" style="shape=rect;html=1;verticalAlign=top;fontStyle=1;whiteSpace=wrap;align=center;fillColor=#f5f5f5;fontColor=#333333;strokeColor=#666666;shadow=1;" parent="1" vertex="1">
          <mxGeometry x="150" y="670" width="577" height="470" as="geometry" />
        </mxCell>
        <mxCell id="IfJ1QCMbeDYxTQooLl67-19" value="Incluir Evento" style="ellipse;whiteSpace=wrap;html=1;shadow=1;" parent="1" vertex="1">
          <mxGeometry x="247" y="720" width="90" height="70" as="geometry" />
        </mxCell>
        <mxCell id="IfJ1QCMbeDYxTQooLl67-20" value="Administrador" style="shape=umlActor;html=1;verticalLabelPosition=bottom;verticalAlign=top;align=center;" parent="1" vertex="1">
          <mxGeometry x="37" y="930" width="30" height="55" as="geometry" />
        </mxCell>
        <mxCell id="IfJ1QCMbeDYxTQooLl67-21" value="" style="edgeStyle=none;html=1;endArrow=block;endFill=0;endSize=12;verticalAlign=bottom;rounded=0;entryX=0;entryY=0.5;entryDx=0;entryDy=0;exitX=0.744;exitY=0.472;exitDx=0;exitDy=0;exitPerimeter=0;" parent="1" source="IfJ1QCMbeDYxTQooLl67-20" target="IfJ1QCMbeDYxTQooLl67-19" edge="1">
          <mxGeometry width="160" relative="1" as="geometry">
            <mxPoint x="117" y="835" as="sourcePoint" />
            <mxPoint x="277" y="835" as="targetPoint" />
          </mxGeometry>
        </mxCell>
        <mxCell id="IfJ1QCMbeDYxTQooLl67-22" value="Alterar Evento" style="ellipse;whiteSpace=wrap;html=1;shadow=1;" parent="1" vertex="1">
          <mxGeometry x="407" y="760" width="96" height="70" as="geometry" />
        </mxCell>
        <mxCell id="IfJ1QCMbeDYxTQooLl67-23" value="Excluir Evento" style="ellipse;whiteSpace=wrap;html=1;shadow=1;" parent="1" vertex="1">
          <mxGeometry x="297" y="900" width="140" height="70" as="geometry" />
        </mxCell>
        <mxCell id="IfJ1QCMbeDYxTQooLl67-24" value="" style="edgeStyle=none;html=1;endArrow=block;endFill=0;endSize=12;verticalAlign=bottom;rounded=0;entryX=0;entryY=0.714;entryDx=0;entryDy=0;entryPerimeter=0;exitX=0.5;exitY=0.5;exitDx=0;exitDy=0;exitPerimeter=0;" parent="1" source="IfJ1QCMbeDYxTQooLl67-20" target="IfJ1QCMbeDYxTQooLl67-22" edge="1">
          <mxGeometry width="160" relative="1" as="geometry">
            <mxPoint x="127" y="914.5" as="sourcePoint" />
            <mxPoint x="287" y="914.5" as="targetPoint" />
          </mxGeometry>
        </mxCell>
        <mxCell id="IfJ1QCMbeDYxTQooLl67-25" value="" style="edgeStyle=none;html=1;endArrow=block;endFill=0;endSize=12;verticalAlign=bottom;rounded=0;exitX=0.744;exitY=0.55;exitDx=0;exitDy=0;exitPerimeter=0;" parent="1" source="IfJ1QCMbeDYxTQooLl67-20" target="IfJ1QCMbeDYxTQooLl67-23" edge="1">
          <mxGeometry width="160" relative="1" as="geometry">
            <mxPoint x="137" y="984.5" as="sourcePoint" />
            <mxPoint x="357" y="945" as="targetPoint" />
          </mxGeometry>
        </mxCell>
        <mxCell id="IfJ1QCMbeDYxTQooLl67-27" value="Consultar Evento" style="ellipse;whiteSpace=wrap;html=1;shadow=1;" parent="1" vertex="1">
          <mxGeometry x="437" y="980" width="140" height="70" as="geometry" />
        </mxCell>
        <mxCell id="IfJ1QCMbeDYxTQooLl67-28" value="" style="edgeStyle=none;html=1;endArrow=block;endFill=0;endSize=12;verticalAlign=bottom;rounded=0;exitX=0.5;exitY=0.5;exitDx=0;exitDy=0;exitPerimeter=0;" parent="1" source="IfJ1QCMbeDYxTQooLl67-20" target="IfJ1QCMbeDYxTQooLl67-27" edge="1">
          <mxGeometry width="160" relative="1" as="geometry">
            <mxPoint x="77" y="925" as="sourcePoint" />
            <mxPoint x="397" y="940" as="targetPoint" />
          </mxGeometry>
        </mxCell>
        <mxCell id="IfJ1QCMbeDYxTQooLl67-29" value="Logar" style="ellipse;whiteSpace=wrap;html=1;shadow=1;" parent="1" vertex="1">
          <mxGeometry x="305" y="1030" width="96" height="70" as="geometry" />
        </mxCell>
        <mxCell id="IfJ1QCMbeDYxTQooLl67-30" value="&amp;lt;&amp;lt;include&amp;gt;&amp;gt;" style="edgeStyle=none;html=1;endArrow=open;verticalAlign=bottom;dashed=1;labelBackgroundColor=none;rounded=0;exitX=0.5;exitY=0.5;exitDx=0;exitDy=0;exitPerimeter=0;entryX=0;entryY=0.5;entryDx=0;entryDy=0;" parent="1" source="IfJ1QCMbeDYxTQooLl67-20" target="IfJ1QCMbeDYxTQooLl67-29" edge="1">
          <mxGeometry x="0.1908" y="2" width="160" relative="1" as="geometry">
            <mxPoint x="127" y="1075" as="sourcePoint" />
            <mxPoint x="287" y="1075" as="targetPoint" />
            <mxPoint y="1" as="offset" />
          </mxGeometry>
        </mxCell>
        <mxCell id="GPzcTo9WPQccJl07pG5u-1" value="Diagrama de casos de uso cadastro de eventos de cursos e oficinas" style="shape=rect;html=1;verticalAlign=top;fontStyle=1;whiteSpace=wrap;align=center;fillColor=#f5f5f5;fontColor=#333333;strokeColor=#666666;shadow=1;" parent="1" vertex="1">
          <mxGeometry x="150" y="170" width="577" height="470" as="geometry" />
        </mxCell>
        <mxCell id="GPzcTo9WPQccJl07pG5u-2" value="Incluir Eventos" style="ellipse;whiteSpace=wrap;html=1;shadow=1;" parent="1" vertex="1">
          <mxGeometry x="180" y="210" width="85" height="60" as="geometry" />
        </mxCell>
        <mxCell id="GPzcTo9WPQccJl07pG5u-3" value="Administrador" style="shape=umlActor;html=1;verticalLabelPosition=bottom;verticalAlign=top;align=center;" parent="1" vertex="1">
          <mxGeometry x="30" y="420" width="30" height="55" as="geometry" />
        </mxCell>
        <mxCell id="GPzcTo9WPQccJl07pG5u-4" value="" style="edgeStyle=none;html=1;endArrow=block;endFill=0;endSize=12;verticalAlign=bottom;rounded=0;entryX=0;entryY=0.5;entryDx=0;entryDy=0;exitX=0.744;exitY=0.472;exitDx=0;exitDy=0;exitPerimeter=0;" parent="1" source="GPzcTo9WPQccJl07pG5u-3" target="GPzcTo9WPQccJl07pG5u-2" edge="1">
          <mxGeometry width="160" relative="1" as="geometry">
            <mxPoint x="117" y="335" as="sourcePoint" />
            <mxPoint x="277" y="335" as="targetPoint" />
          </mxGeometry>
        </mxCell>
        <mxCell id="GPzcTo9WPQccJl07pG5u-6" value="Excluir Evento" style="ellipse;whiteSpace=wrap;html=1;shadow=1;" parent="1" vertex="1">
          <mxGeometry x="490" y="210" width="100" height="50" as="geometry" />
        </mxCell>
        <mxCell id="GPzcTo9WPQccJl07pG5u-7" value="" style="edgeStyle=none;html=1;endArrow=block;endFill=0;endSize=12;verticalAlign=bottom;rounded=0;entryX=0;entryY=0.714;entryDx=0;entryDy=0;entryPerimeter=0;exitX=0.5;exitY=0.5;exitDx=0;exitDy=0;exitPerimeter=0;" parent="1" source="GPzcTo9WPQccJl07pG5u-3" target="GPzcTo9WPQccJl07pG5u-5" edge="1">
          <mxGeometry width="160" relative="1" as="geometry">
            <mxPoint x="127" y="414.5" as="sourcePoint" />
            <mxPoint x="287" y="414.5" as="targetPoint" />
          </mxGeometry>
        </mxCell>
        <mxCell id="GPzcTo9WPQccJl07pG5u-8" value="" style="edgeStyle=none;html=1;endArrow=block;endFill=0;endSize=12;verticalAlign=bottom;rounded=0;exitX=0.744;exitY=0.55;exitDx=0;exitDy=0;exitPerimeter=0;" parent="1" source="GPzcTo9WPQccJl07pG5u-3" target="GPzcTo9WPQccJl07pG5u-6" edge="1">
          <mxGeometry width="160" relative="1" as="geometry">
            <mxPoint x="137" y="484.5" as="sourcePoint" />
            <mxPoint x="357" y="445" as="targetPoint" />
          </mxGeometry>
        </mxCell>
        <mxCell id="GPzcTo9WPQccJl07pG5u-9" value="Consultar Evento" style="ellipse;whiteSpace=wrap;html=1;shadow=1;" parent="1" vertex="1">
          <mxGeometry x="450" y="280" width="106" height="60" as="geometry" />
        </mxCell>
        <mxCell id="GPzcTo9WPQccJl07pG5u-10" value="" style="edgeStyle=none;html=1;endArrow=block;endFill=0;endSize=12;verticalAlign=bottom;rounded=0;exitX=0.5;exitY=0.5;exitDx=0;exitDy=0;exitPerimeter=0;" parent="1" source="GPzcTo9WPQccJl07pG5u-3" target="GPzcTo9WPQccJl07pG5u-9" edge="1">
          <mxGeometry width="160" relative="1" as="geometry">
            <mxPoint x="77" y="425" as="sourcePoint" />
            <mxPoint x="397" y="440" as="targetPoint" />
          </mxGeometry>
        </mxCell>
        <mxCell id="GPzcTo9WPQccJl07pG5u-11" value="Logar" style="ellipse;whiteSpace=wrap;html=1;shadow=1;" parent="1" vertex="1">
          <mxGeometry x="247" y="550" width="96" height="70" as="geometry" />
        </mxCell>
        <mxCell id="GPzcTo9WPQccJl07pG5u-12" value="&amp;lt;&amp;lt;include&amp;gt;&amp;gt;" style="edgeStyle=none;html=1;endArrow=open;verticalAlign=bottom;dashed=1;labelBackgroundColor=none;rounded=0;exitX=0.5;exitY=0.5;exitDx=0;exitDy=0;exitPerimeter=0;entryX=0;entryY=0.5;entryDx=0;entryDy=0;" parent="1" source="GPzcTo9WPQccJl07pG5u-3" target="GPzcTo9WPQccJl07pG5u-11" edge="1">
          <mxGeometry x="0.1911" y="1" width="160" relative="1" as="geometry">
            <mxPoint x="127" y="575" as="sourcePoint" />
            <mxPoint x="287" y="575" as="targetPoint" />
            <mxPoint as="offset" />
          </mxGeometry>
        </mxCell>
        <mxCell id="GPzcTo9WPQccJl07pG5u-13" value="Visitante&amp;nbsp;&lt;br&gt;do&amp;nbsp;&lt;br&gt;site" style="shape=umlActor;verticalLabelPosition=bottom;verticalAlign=top;html=1;outlineConnect=0;" parent="1" vertex="1">
          <mxGeometry x="757" y="380" width="30" height="60" as="geometry" />
        </mxCell>
        <mxCell id="GPzcTo9WPQccJl07pG5u-17" value="" style="edgeStyle=none;html=1;endArrow=block;endFill=0;endSize=12;verticalAlign=bottom;rounded=0;entryX=0.971;entryY=0.623;entryDx=0;entryDy=0;entryPerimeter=0;exitX=0.5;exitY=0.5;exitDx=0;exitDy=0;exitPerimeter=0;" parent="1" source="GPzcTo9WPQccJl07pG5u-13" target="GPzcTo9WPQccJl07pG5u-9" edge="1">
          <mxGeometry width="160" relative="1" as="geometry">
            <mxPoint x="480" y="250" as="sourcePoint" />
            <mxPoint x="640" y="250" as="targetPoint" />
          </mxGeometry>
        </mxCell>
        <mxCell id="GPzcTo9WPQccJl07pG5u-5" value="Alterar Evento" style="ellipse;whiteSpace=wrap;html=1;shadow=1;" parent="1" vertex="1">
          <mxGeometry x="320" y="210" width="96" height="70" as="geometry" />
        </mxCell>
        <mxCell id="GPzcTo9WPQccJl07pG5u-19" value="Incluir &lt;br&gt;participante" style="ellipse;whiteSpace=wrap;html=1;shadow=1;" parent="1" vertex="1">
          <mxGeometry x="297" y="370" width="140" height="70" as="geometry" />
        </mxCell>
        <mxCell id="GPzcTo9WPQccJl07pG5u-20" value="Consultar&lt;br&gt;participante" style="ellipse;whiteSpace=wrap;html=1;shadow=1;" parent="1" vertex="1">
          <mxGeometry x="420" y="420" width="140" height="70" as="geometry" />
        </mxCell>
        <mxCell id="GPzcTo9WPQccJl07pG5u-21" value="Excluir&lt;br&gt;participante" style="ellipse;whiteSpace=wrap;html=1;shadow=1;" parent="1" vertex="1">
          <mxGeometry x="407" y="520" width="110" height="50" as="geometry" />
        </mxCell>
        <mxCell id="GPzcTo9WPQccJl07pG5u-22" value="" style="edgeStyle=none;html=1;endArrow=block;endFill=0;endSize=12;verticalAlign=bottom;rounded=0;entryX=0.921;entryY=0.252;entryDx=0;entryDy=0;entryPerimeter=0;exitX=0.5;exitY=0.5;exitDx=0;exitDy=0;exitPerimeter=0;" parent="1" target="GPzcTo9WPQccJl07pG5u-19" edge="1">
          <mxGeometry width="160" relative="1" as="geometry">
            <mxPoint x="782" y="420" as="sourcePoint" />
            <mxPoint x="563" y="357" as="targetPoint" />
          </mxGeometry>
        </mxCell>
        <mxCell id="GPzcTo9WPQccJl07pG5u-23" value="" style="edgeStyle=none;html=1;endArrow=block;endFill=0;endSize=12;verticalAlign=bottom;rounded=0;" parent="1" source="GPzcTo9WPQccJl07pG5u-13" target="GPzcTo9WPQccJl07pG5u-20" edge="1">
          <mxGeometry width="160" relative="1" as="geometry">
            <mxPoint x="792" y="430" as="sourcePoint" />
            <mxPoint x="436" y="418" as="targetPoint" />
          </mxGeometry>
        </mxCell>
        <mxCell id="GPzcTo9WPQccJl07pG5u-24" value="" style="edgeStyle=none;html=1;endArrow=block;endFill=0;endSize=12;verticalAlign=bottom;rounded=0;entryX=1;entryY=0.5;entryDx=0;entryDy=0;" parent="1" source="GPzcTo9WPQccJl07pG5u-13" target="GPzcTo9WPQccJl07pG5u-21" edge="1">
          <mxGeometry width="160" relative="1" as="geometry">
            <mxPoint x="660" y="500" as="sourcePoint" />
            <mxPoint x="490" y="527" as="targetPoint" />
          </mxGeometry>
        </mxCell>
        <mxCell id="GPzcTo9WPQccJl07pG5u-25" value="" style="edgeStyle=none;html=1;endArrow=none;endFill=0;endSize=12;verticalAlign=bottom;rounded=1;exitX=0.5;exitY=0.5;exitDx=0;exitDy=0;exitPerimeter=0;labelBackgroundColor=none;startArrow=open;startSize=12;dashed=1;" parent="1" source="GPzcTo9WPQccJl07pG5u-3" target="GPzcTo9WPQccJl07pG5u-21" edge="1">
          <mxGeometry width="160" relative="1" as="geometry">
            <mxPoint x="60" y="450" as="sourcePoint" />
            <mxPoint x="465" y="362" as="targetPoint" />
          </mxGeometry>
        </mxCell>
        <mxCell id="GPzcTo9WPQccJl07pG5u-28" value="" style="edgeStyle=none;html=1;endArrow=block;endFill=0;endSize=12;verticalAlign=bottom;rounded=0;exitX=0.611;exitY=0.355;exitDx=0;exitDy=0;exitPerimeter=0;" parent="1" source="GPzcTo9WPQccJl07pG5u-3" target="GPzcTo9WPQccJl07pG5u-19" edge="1">
          <mxGeometry width="160" relative="1" as="geometry">
            <mxPoint x="40" y="430" as="sourcePoint" />
            <mxPoint x="387" y="523" as="targetPoint" />
          </mxGeometry>
        </mxCell>
        <mxCell id="GPzcTo9WPQccJl07pG5u-30" value="" style="edgeStyle=none;html=1;endArrow=block;endFill=0;endSize=12;verticalAlign=bottom;rounded=0;exitX=0.611;exitY=0.355;exitDx=0;exitDy=0;exitPerimeter=0;" parent="1" target="GPzcTo9WPQccJl07pG5u-20" edge="1">
          <mxGeometry width="160" relative="1" as="geometry">
            <mxPoint x="58" y="450" as="sourcePoint" />
            <mxPoint x="311" y="406" as="targetPoint" />
          </mxGeometry>
        </mxCell>
        <mxCell id="GPzcTo9WPQccJl07pG5u-35" value="&amp;lt;&amp;lt;include&amp;gt;&amp;gt;" style="edgeStyle=none;html=1;endArrow=open;verticalAlign=bottom;dashed=1;labelBackgroundColor=none;rounded=0;" parent="1" source="GPzcTo9WPQccJl07pG5u-11" target="GPzcTo9WPQccJl07pG5u-21" edge="1">
          <mxGeometry width="160" relative="1" as="geometry">
            <mxPoint x="200" y="520" as="sourcePoint" />
            <mxPoint x="360" y="520" as="targetPoint" />
          </mxGeometry>
        </mxCell>
        <mxCell id="GPzcTo9WPQccJl07pG5u-38" value="&amp;lt;&amp;lt;include&amp;gt;&amp;gt;" style="edgeStyle=none;html=1;endArrow=open;verticalAlign=bottom;dashed=1;labelBackgroundColor=none;rounded=0;exitX=0.5;exitY=0;exitDx=0;exitDy=0;entryX=0.307;entryY=1;entryDx=0;entryDy=0;entryPerimeter=0;" parent="1" source="GPzcTo9WPQccJl07pG5u-11" target="GPzcTo9WPQccJl07pG5u-19" edge="1">
          <mxGeometry width="160" relative="1" as="geometry">
            <mxPoint x="256" y="520" as="sourcePoint" />
            <mxPoint x="340" y="490" as="targetPoint" />
          </mxGeometry>
        </mxCell>
      </root>
    </mxGraphModel>
  </diagram>
</mxfile>
